<mxfile host="Electron" modified="2024-05-22T09:57:17.604Z" agent="Mozilla/5.0 (X11; Linux x86_64) AppleWebKit/537.36 (KHTML, like Gecko) draw.io/24.4.0 Chrome/120.0.6099.109 Electron/28.1.0 Safari/537.36" etag="aI0PbeYJelUpq3h_ifVs" version="24.4.0" type="device">
  <diagram name="Page-1" id="o8IaR38V3qPhSs0lsbf8">
    <mxGraphModel dx="941" dy="581" grid="1" gridSize="10" guides="1" tooltips="1" connect="1" arrows="1" fold="1" page="1" pageScale="1" pageWidth="827" pageHeight="583" math="0" shadow="0">
      <root>
        <mxCell id="0" />
        <mxCell id="1" parent="0" />
        <mxCell id="QuL_5hhNDOjUeJQe1cB8-1" value="&lt;span style=&quot;font-size: 18px;&quot;&gt;ROS UART parser stucture&lt;/span&gt;" style="text;html=1;align=center;verticalAlign=middle;whiteSpace=wrap;rounded=0;" parent="1" vertex="1">
          <mxGeometry x="20" y="10" width="260" height="30" as="geometry" />
        </mxCell>
        <mxCell id="PL0UzmpT-UTJ5Yaa5F_q-7" value="" style="edgeStyle=orthogonalEdgeStyle;rounded=0;orthogonalLoop=1;jettySize=auto;html=1;" edge="1" parent="1" source="QuL_5hhNDOjUeJQe1cB8-2" target="PL0UzmpT-UTJ5Yaa5F_q-6">
          <mxGeometry relative="1" as="geometry" />
        </mxCell>
        <mxCell id="QuL_5hhNDOjUeJQe1cB8-2" value="Parse input" style="rounded=1;whiteSpace=wrap;html=1;fillColor=#dae8fc;strokeColor=#6c8ebf;fontSize=16;" parent="1" vertex="1">
          <mxGeometry x="310" y="232" width="120" height="60" as="geometry" />
        </mxCell>
        <mxCell id="PL0UzmpT-UTJ5Yaa5F_q-5" value="" style="edgeStyle=orthogonalEdgeStyle;rounded=0;orthogonalLoop=1;jettySize=auto;html=1;" edge="1" parent="1" source="PL0UzmpT-UTJ5Yaa5F_q-1" target="QuL_5hhNDOjUeJQe1cB8-2">
          <mxGeometry relative="1" as="geometry" />
        </mxCell>
        <mxCell id="PL0UzmpT-UTJ5Yaa5F_q-1" value="rosRxBuffer" style="rounded=1;whiteSpace=wrap;html=1;fillColor=#fff2cc;strokeColor=#d6b656;fontSize=16;" vertex="1" parent="1">
          <mxGeometry x="80" y="232" width="120" height="60" as="geometry" />
        </mxCell>
        <mxCell id="PL0UzmpT-UTJ5Yaa5F_q-4" value="" style="edgeStyle=orthogonalEdgeStyle;rounded=0;orthogonalLoop=1;jettySize=auto;html=1;" edge="1" parent="1" source="PL0UzmpT-UTJ5Yaa5F_q-3" target="PL0UzmpT-UTJ5Yaa5F_q-1">
          <mxGeometry relative="1" as="geometry" />
        </mxCell>
        <mxCell id="PL0UzmpT-UTJ5Yaa5F_q-3" value="ros rx handler&lt;div&gt;[UART]&lt;/div&gt;" style="rounded=1;whiteSpace=wrap;html=1;fillColor=#dae8fc;strokeColor=#6c8ebf;fontSize=16;dashed=1;" vertex="1" parent="1">
          <mxGeometry x="80" y="60" width="120" height="60" as="geometry" />
        </mxCell>
        <mxCell id="PL0UzmpT-UTJ5Yaa5F_q-9" style="edgeStyle=orthogonalEdgeStyle;rounded=0;orthogonalLoop=1;jettySize=auto;html=1;exitX=0;exitY=0.5;exitDx=0;exitDy=0;entryX=0.5;entryY=1;entryDx=0;entryDy=0;" edge="1" parent="1" source="PL0UzmpT-UTJ5Yaa5F_q-6" target="PL0UzmpT-UTJ5Yaa5F_q-8">
          <mxGeometry relative="1" as="geometry" />
        </mxCell>
        <mxCell id="PL0UzmpT-UTJ5Yaa5F_q-13" value="" style="edgeStyle=orthogonalEdgeStyle;rounded=0;orthogonalLoop=1;jettySize=auto;html=1;" edge="1" parent="1" source="PL0UzmpT-UTJ5Yaa5F_q-6" target="PL0UzmpT-UTJ5Yaa5F_q-12">
          <mxGeometry relative="1" as="geometry" />
        </mxCell>
        <mxCell id="PL0UzmpT-UTJ5Yaa5F_q-6" value="str/num" style="rhombus;whiteSpace=wrap;html=1;fillColor=#d5e8d4;strokeColor=#82b366;fontSize=16;" vertex="1" parent="1">
          <mxGeometry x="330" y="100" width="80" height="80" as="geometry" />
        </mxCell>
        <mxCell id="PL0UzmpT-UTJ5Yaa5F_q-8" value="string processor" style="rounded=1;whiteSpace=wrap;html=1;fillColor=#dae8fc;strokeColor=#6c8ebf;fontSize=16;" vertex="1" parent="1">
          <mxGeometry x="210" y="60" width="120" height="60" as="geometry" />
        </mxCell>
        <mxCell id="PL0UzmpT-UTJ5Yaa5F_q-10" value="controller interface" style="rounded=1;whiteSpace=wrap;html=1;fillColor=#dae8fc;strokeColor=#6c8ebf;fontSize=16;" vertex="1" parent="1">
          <mxGeometry x="570" y="50" width="120" height="60" as="geometry" />
        </mxCell>
        <mxCell id="PL0UzmpT-UTJ5Yaa5F_q-14" style="rounded=0;orthogonalLoop=1;jettySize=auto;html=1;exitX=1;exitY=0;exitDx=0;exitDy=0;entryX=0;entryY=0.5;entryDx=0;entryDy=0;edgeStyle=orthogonalEdgeStyle;" edge="1" parent="1" source="PL0UzmpT-UTJ5Yaa5F_q-12" target="PL0UzmpT-UTJ5Yaa5F_q-10">
          <mxGeometry relative="1" as="geometry">
            <Array as="points">
              <mxPoint x="550" y="120" />
              <mxPoint x="550" y="80" />
            </Array>
          </mxGeometry>
        </mxCell>
        <mxCell id="PL0UzmpT-UTJ5Yaa5F_q-16" style="edgeStyle=orthogonalEdgeStyle;rounded=0;orthogonalLoop=1;jettySize=auto;html=1;exitX=1;exitY=1;exitDx=0;exitDy=0;entryX=0;entryY=0.5;entryDx=0;entryDy=0;" edge="1" parent="1" source="PL0UzmpT-UTJ5Yaa5F_q-12" target="PL0UzmpT-UTJ5Yaa5F_q-15">
          <mxGeometry relative="1" as="geometry">
            <Array as="points">
              <mxPoint x="550" y="160" />
              <mxPoint x="550" y="200" />
            </Array>
          </mxGeometry>
        </mxCell>
        <mxCell id="PL0UzmpT-UTJ5Yaa5F_q-12" value="local/&lt;div&gt;remote&lt;/div&gt;" style="rhombus;whiteSpace=wrap;html=1;fillColor=#d5e8d4;strokeColor=#82b366;fontSize=16;" vertex="1" parent="1">
          <mxGeometry x="470" y="100" width="80" height="80" as="geometry" />
        </mxCell>
        <mxCell id="PL0UzmpT-UTJ5Yaa5F_q-15" value="CAN message" style="rounded=1;whiteSpace=wrap;html=1;fillColor=#dae8fc;strokeColor=#6c8ebf;fontSize=16;" vertex="1" parent="1">
          <mxGeometry x="570" y="170" width="120" height="60" as="geometry" />
        </mxCell>
        <mxCell id="PL0UzmpT-UTJ5Yaa5F_q-17" value="Main loop" style="swimlane;whiteSpace=wrap;html=1;" vertex="1" parent="1">
          <mxGeometry x="290" y="200" width="160" height="110" as="geometry" />
        </mxCell>
      </root>
    </mxGraphModel>
  </diagram>
</mxfile>
